<svg width="168" height="15" viewBox="0 0 168 15" fill="none" xmlns="http://www.w3.org/2000/svg">
<path d="M1.50127 5.18182H2.34218L4.31945 10.0114H4.38763L6.3649 5.18182H7.20581V11H6.54672V6.57955H6.4899L4.67172 11H4.03536L2.21718 6.57955H2.16036V11H1.50127V5.18182ZM10.3571 11.0909C9.93664 11.0909 9.57395 10.9981 9.26902 10.8125C8.96599 10.625 8.73209 10.3636 8.56732 10.0284C8.40444 9.69129 8.323 9.29924 8.323 8.85227C8.323 8.4053 8.40444 8.01136 8.56732 7.67045C8.73209 7.32765 8.96126 7.06061 9.25482 6.86932C9.55027 6.67614 9.89497 6.57955 10.2889 6.57955C10.5162 6.57955 10.7406 6.61742 10.9622 6.69318C11.1838 6.76894 11.3855 6.89205 11.5673 7.0625C11.7491 7.23106 11.894 7.45455 12.002 7.73295C12.1099 8.01136 12.1639 8.35417 12.1639 8.76136V9.04545H8.80027V8.46591H11.4821C11.4821 8.2197 11.4328 8 11.3344 7.80682C11.2378 7.61364 11.0995 7.46117 10.9196 7.34943C10.7416 7.23769 10.5313 7.18182 10.2889 7.18182C10.0219 7.18182 9.7908 7.24811 9.59573 7.38068C9.40255 7.51136 9.25387 7.68182 9.14971 7.89205C9.04554 8.10227 8.99346 8.32765 8.99346 8.56818V8.95455C8.99346 9.28409 9.05027 9.56345 9.16391 9.79261C9.27944 10.0199 9.43948 10.1932 9.64402 10.3125C9.84857 10.4299 10.0863 10.4886 10.3571 10.4886C10.5332 10.4886 10.6923 10.464 10.8344 10.4148C10.9783 10.3636 11.1024 10.2879 11.2065 10.1875C11.3107 10.0852 11.3912 9.95833 11.448 9.80682L12.0957 9.98864C12.0275 10.2083 11.913 10.4015 11.752 10.5682C11.591 10.733 11.3921 10.8617 11.1554 10.9545C10.9186 11.0455 10.6525 11.0909 10.3571 11.0909ZM16.1043 8.51136V9.13636H13.6952V8.51136H16.1043ZM13.8543 6.63636V11H13.1838V6.63636H13.8543ZM16.6156 6.63636V11H15.9452V6.63636H16.6156ZM18.4196 8.21591H19.6696C20.181 8.21591 20.5721 8.34564 20.8429 8.60511C21.1137 8.86458 21.2491 9.19318 21.2491 9.59091C21.2491 9.85227 21.1885 10.09 21.0673 10.304C20.9461 10.5161 20.7681 10.6856 20.5332 10.8125C20.2984 10.9375 20.0105 11 19.6696 11H17.84V6.63636H18.5105V10.375H19.6696C19.9347 10.375 20.1525 10.3049 20.323 10.1648C20.4935 10.0246 20.5787 9.8447 20.5787 9.625C20.5787 9.39394 20.4935 9.20549 20.323 9.05966C20.1525 8.91383 19.9347 8.84091 19.6696 8.84091H18.4196V8.21591ZM22.2697 6.63636H22.9402V10.375H24.5879V6.63636H25.2584V10.375H26.9061V6.63636H27.5766V11H22.2697V6.63636ZM30.6305 11.0909C30.2101 11.0909 29.8474 10.9981 29.5425 10.8125C29.2394 10.625 29.0055 10.3636 28.8408 10.0284C28.6779 9.69129 28.5964 9.29924 28.5964 8.85227C28.5964 8.4053 28.6779 8.01136 28.8408 7.67045C29.0055 7.32765 29.2347 7.06061 29.5283 6.86932C29.8237 6.67614 30.1684 6.57955 30.5623 6.57955C30.7896 6.57955 31.0141 6.61742 31.2356 6.69318C31.4572 6.76894 31.6589 6.89205 31.8408 7.0625C32.0226 7.23106 32.1675 7.45455 32.2754 7.73295C32.3834 8.01136 32.4373 8.35417 32.4373 8.76136V9.04545H29.0737V8.46591H31.7555C31.7555 8.2197 31.7063 8 31.6078 7.80682C31.5112 7.61364 31.373 7.46117 31.193 7.34943C31.015 7.23769 30.8048 7.18182 30.5623 7.18182C30.2953 7.18182 30.0642 7.24811 29.8692 7.38068C29.676 7.51136 29.5273 7.68182 29.4231 7.89205C29.319 8.10227 29.2669 8.32765 29.2669 8.56818V8.95455C29.2669 9.28409 29.3237 9.56345 29.4373 9.79261C29.5529 10.0199 29.7129 10.1932 29.9175 10.3125C30.122 10.4299 30.3597 10.4886 30.6305 10.4886C30.8067 10.4886 30.9658 10.464 31.1078 10.4148C31.2517 10.3636 31.3758 10.2879 31.48 10.1875C31.5841 10.0852 31.6646 9.95833 31.7214 9.80682L32.3692 9.98864C32.301 10.2083 32.1864 10.4015 32.0254 10.5682C31.8644 10.733 31.6656 10.8617 31.4288 10.9545C31.1921 11.0455 30.926 11.0909 30.6305 11.0909Z" fill="#959494"/>
<path d="M135.195 11V5.18182H138.706V5.80682H135.899V7.625H137.377C137.793 7.625 138.145 7.69318 138.431 7.82955C138.719 7.96591 138.936 8.15814 139.084 8.40625C139.234 8.65436 139.308 8.94697 139.308 9.28409C139.308 9.62121 139.234 9.91856 139.084 10.1761C138.936 10.4337 138.719 10.6354 138.431 10.7812C138.145 10.9271 137.793 11 137.377 11H135.195ZM135.899 10.3864H137.377C137.642 10.3864 137.866 10.3333 138.05 10.2273C138.236 10.1193 138.376 9.98106 138.47 9.8125C138.567 9.64205 138.615 9.46212 138.615 9.27273C138.615 8.99432 138.508 8.75473 138.294 8.55398C138.08 8.35133 137.774 8.25 137.377 8.25H135.899V10.3864ZM142.15 11.0909C141.756 11.0909 141.411 10.9972 141.113 10.8097C140.818 10.6222 140.587 10.3598 140.42 10.0227C140.255 9.68561 140.173 9.29167 140.173 8.84091C140.173 8.38636 140.255 7.98958 140.42 7.65057C140.587 7.31155 140.818 7.0483 141.113 6.8608C141.411 6.6733 141.756 6.57955 142.15 6.57955C142.544 6.57955 142.889 6.6733 143.184 6.8608C143.482 7.0483 143.713 7.31155 143.877 7.65057C144.044 7.98958 144.127 8.38636 144.127 8.84091C144.127 9.29167 144.044 9.68561 143.877 10.0227C143.713 10.3598 143.482 10.6222 143.184 10.8097C142.889 10.9972 142.544 11.0909 142.15 11.0909ZM142.15 10.4886C142.449 10.4886 142.696 10.4119 142.889 10.2585C143.082 10.1051 143.225 9.90341 143.318 9.65341C143.411 9.40341 143.457 9.13258 143.457 8.84091C143.457 8.54924 143.411 8.27746 143.318 8.02557C143.225 7.77367 143.082 7.57008 142.889 7.41477C142.696 7.25947 142.449 7.18182 142.15 7.18182C141.851 7.18182 141.605 7.25947 141.411 7.41477C141.218 7.57008 141.075 7.77367 140.982 8.02557C140.89 8.27746 140.843 8.54924 140.843 8.84091C140.843 9.13258 140.89 9.40341 140.982 9.65341C141.075 9.90341 141.218 10.1051 141.411 10.2585C141.605 10.4119 141.851 10.4886 142.15 10.4886ZM144.764 11V10.375H144.924C145.054 10.375 145.163 10.3494 145.25 10.2983C145.337 10.2453 145.407 10.1534 145.46 10.0227C145.515 9.89015 145.557 9.70644 145.585 9.47159C145.616 9.23485 145.638 8.93371 145.651 8.56818L145.73 6.63636H148.639V11H147.969V7.26136H146.367L146.299 8.81818C146.283 9.17614 146.251 9.49148 146.202 9.7642C146.155 10.035 146.082 10.2623 145.983 10.446C145.887 10.6297 145.758 10.768 145.597 10.8608C145.436 10.9536 145.234 11 144.992 11H144.764ZM150.449 8.21591H151.699C152.21 8.21591 152.602 8.34564 152.872 8.60511C153.143 8.86458 153.279 9.19318 153.279 9.59091C153.279 9.85227 153.218 10.09 153.097 10.304C152.976 10.5161 152.798 10.6856 152.563 10.8125C152.328 10.9375 152.04 11 151.699 11H149.87V6.63636H150.54V10.375H151.699C151.964 10.375 152.182 10.3049 152.353 10.1648C152.523 10.0246 152.608 9.8447 152.608 9.625C152.608 9.39394 152.523 9.20549 152.353 9.05966C152.182 8.91383 151.964 8.84091 151.699 8.84091H150.449V8.21591ZM154.299 6.63636H154.97V10.375H156.617V6.63636H157.288V10.375H158.936V6.63636H159.606V11H154.299V6.63636ZM162.66 11.0909C162.24 11.0909 161.877 10.9981 161.572 10.8125C161.269 10.625 161.035 10.3636 160.87 10.0284C160.707 9.69129 160.626 9.29924 160.626 8.85227C160.626 8.4053 160.707 8.01136 160.87 7.67045C161.035 7.32765 161.264 7.06061 161.558 6.86932C161.853 6.67614 162.198 6.57955 162.592 6.57955C162.819 6.57955 163.044 6.61742 163.265 6.69318C163.487 6.76894 163.688 6.89205 163.87 7.0625C164.052 7.23106 164.197 7.45455 164.305 7.73295C164.413 8.01136 164.467 8.35417 164.467 8.76136V9.04545H161.103V8.46591H163.785C163.785 8.2197 163.736 8 163.637 7.80682C163.541 7.61364 163.402 7.46117 163.223 7.34943C163.045 7.23769 162.834 7.18182 162.592 7.18182C162.325 7.18182 162.094 7.24811 161.899 7.38068C161.705 7.51136 161.557 7.68182 161.453 7.89205C161.348 8.10227 161.296 8.32765 161.296 8.56818V8.95455C161.296 9.28409 161.353 9.56345 161.467 9.79261C161.582 10.0199 161.742 10.1932 161.947 10.3125C162.152 10.4299 162.389 10.4886 162.66 10.4886C162.836 10.4886 162.995 10.464 163.137 10.4148C163.281 10.3636 163.405 10.2879 163.509 10.1875C163.614 10.0852 163.694 9.95833 163.751 9.80682L164.399 9.98864C164.33 10.2083 164.216 10.4015 164.055 10.5682C163.894 10.733 163.695 10.8617 163.458 10.9545C163.222 11.0455 162.955 11.0909 162.66 11.0909Z" fill="#959494"/>
<path d="M56.9054 0H41.9049V15H56.9054V0Z" fill="#EDEDED"/>
<path d="M73.9059 0H58.9054V15H73.9059V0Z" fill="#ACD5F2"/>
<path d="M90.9064 0H75.906V15H90.9064V0Z" fill="#7FA8C9"/>
<path d="M107.907 0H92.9065V15H107.907V0Z" fill="#527BA0"/>
<path d="M124.908 0H109.907V15H124.908V0Z" fill="#254E77"/>
</svg>
